<svg width="17" height="19" viewBox="0 0 17 19" fill="none" xmlns="http://www.w3.org/2000/svg">
<path d="M15.917 2.9846L14.0877 1.15536C13.7704 0.837975 13.3399 0.65967 12.8911 0.659668L6.82255 0.659668C5.88787 0.659668 5.13018 1.41736 5.13018 2.35204V4.04441H2.30956C1.37488 4.04441 0.617188 4.8021 0.617188 5.73679V17.0193C0.617188 17.954 1.37488 18.7116 2.30956 18.7116H10.2073C11.142 18.7116 11.8997 17.954 11.8997 17.0193V15.3269H14.7203C15.655 15.3269 16.4127 14.5692 16.4127 13.6345V4.18128C16.4127 3.73244 16.2344 3.30198 15.917 2.9846ZM9.99575 17.0193H2.52111C2.465 17.0193 2.41119 16.997 2.37152 16.9573C2.33185 16.9176 2.30956 16.8638 2.30956 16.8077V5.94833C2.30956 5.89223 2.33185 5.83842 2.37152 5.79875C2.41119 5.75907 2.465 5.73679 2.52111 5.73679H5.13018V13.6345C5.13018 14.5692 5.88787 15.3269 6.82255 15.3269H10.2073V16.8077C10.2073 16.8638 10.185 16.9176 10.1453 16.9573C10.1057 16.997 10.0519 17.0193 9.99575 17.0193ZM14.5087 13.6345H7.0341C6.97799 13.6345 6.92419 13.6122 6.88451 13.5726C6.84484 13.5329 6.82255 13.4791 6.82255 13.423V2.56359C6.82255 2.50748 6.84484 2.45367 6.88451 2.414C6.92419 2.37433 6.97799 2.35204 7.0341 2.35204H10.7714V5.45472C10.7714 5.92207 11.1503 6.30091 11.6176 6.30091H14.7203V13.423C14.7203 13.4791 14.698 13.5329 14.6583 13.5726C14.6187 13.6122 14.5649 13.6345 14.5087 13.6345ZM14.7203 4.60854H12.4638V2.35204H12.8034C12.8595 2.35204 12.9133 2.37432 12.953 2.41399L14.6583 4.11934C14.678 4.13898 14.6936 4.16231 14.7042 4.18797C14.7148 4.21364 14.7203 4.24115 14.7203 4.26893V4.60854Z" fill="black" fill-opacity="0.6"/>
</svg>
