<svg xmlns="http://www.w3.org/2000/svg" viewBox="0 0 36 36">
<path fill-rule="evenodd" clip-rule="evenodd" d="M17.9834 35.6014C8.31706 35.6014 0.480896 27.7653 0.480896 18.0989C0.480896 8.43247 8.31706 0.596313 17.9834 0.596313C27.6498 0.596313 35.486 8.43247 35.486 18.0989C35.486 27.7653 27.6498 35.6014 17.9834 35.6014ZM26.3227 22.6868H12.1303V12.3374C12.1303 12.0364 11.8951 11.7927 11.6047 11.7927H10.5534C10.263 11.7927 10.0277 12.0364 10.0277 12.3374V23.7763C10.0277 24.3778 10.4985 24.8657 11.079 24.8657H26.3227C26.6132 24.8657 26.8484 24.6219 26.8484 24.321V23.2315C26.8484 22.9306 26.6132 22.6868 26.3227 22.6868ZM25.2714 12.8821H21.3928C20.6905 12.8821 20.3386 13.7621 20.8353 14.2769L21.8998 15.3799L19.4894 17.8781L17.0789 15.3802C16.6683 14.9547 16.0027 14.9547 15.5924 15.3802L13.3357 17.7187C13.1304 17.9315 13.1304 18.2764 13.3357 18.4892L14.0788 19.2593C14.2842 19.472 14.617 19.472 14.8223 19.2593L16.3355 17.6908L18.7459 20.1887C19.1565 20.6142 19.8221 20.6142 20.2325 20.1887L23.3863 16.9204L24.4508 18.0234C24.9475 18.5382 25.7968 18.1736 25.7968 17.4457V13.4268C25.7971 13.1258 25.5619 12.8821 25.2714 12.8821Z" fill="#39C3D2"/>
</svg>
