<svg width="135" height="36" viewBox="0 0 135 36" fill="none" xmlns="http://www.w3.org/2000/svg">
<path fill-rule="evenodd" clip-rule="evenodd" d="M17.9834 35.6014C8.31706 35.6014 0.480896 27.7653 0.480896 18.0989C0.480896 8.43247 8.31706 0.596313 17.9834 0.596313C27.6498 0.596313 35.486 8.43247 35.486 18.0989C35.486 27.7653 27.6498 35.6014 17.9834 35.6014ZM26.3227 22.6868H12.1303V12.3374C12.1303 12.0364 11.8951 11.7927 11.6047 11.7927H10.5534C10.263 11.7927 10.0277 12.0364 10.0277 12.3374V23.7763C10.0277 24.3778 10.4985 24.8657 11.079 24.8657H26.3227C26.6132 24.8657 26.8484 24.6219 26.8484 24.321V23.2315C26.8484 22.9306 26.6132 22.6868 26.3227 22.6868ZM25.2714 12.8821H21.3928C20.6905 12.8821 20.3386 13.7621 20.8353 14.2769L21.8998 15.3799L19.4894 17.8781L17.0789 15.3802C16.6683 14.9547 16.0027 14.9547 15.5924 15.3802L13.3357 17.7187C13.1304 17.9315 13.1304 18.2764 13.3357 18.4892L14.0788 19.2593C14.2842 19.472 14.617 19.472 14.8223 19.2593L16.3355 17.6908L18.7459 20.1887C19.1565 20.6142 19.8221 20.6142 20.2325 20.1887L23.3863 16.9204L24.4508 18.0234C24.9475 18.5382 25.7968 18.1736 25.7968 17.4457V13.4268C25.7971 13.1258 25.5619 12.8821 25.2714 12.8821Z" fill="#39C3D2"/>
<path d="M48.2744 25.0989H51.6655L56.0503 11.9446H52.96L50.052 22.0633H49.897L46.98 11.9446H43.8897L48.2744 25.0989Z" fill="#393939"/>
<path d="M57.9646 25.0989H60.6265V15.0805H57.9646V25.0989ZM59.3047 13.5672C59.7179 13.5672 60.0704 13.4244 60.3621 13.1388C60.6538 12.8471 60.7997 12.4976 60.7997 12.0905C60.7997 11.6833 60.6538 11.3369 60.3621 11.0513C60.0704 10.7656 59.7179 10.6228 59.3047 10.6228C58.8975 10.6228 58.545 10.7656 58.2472 11.0513C57.9555 11.3369 57.8097 11.6833 57.8097 12.0905C57.8097 12.4976 57.9555 12.8471 58.2472 13.1388C58.545 13.4244 58.8975 13.5672 59.3047 13.5672Z" fill="#393939"/>
<path d="M67.2446 25.3085C68.1015 25.3085 68.8581 25.1748 69.5145 24.9074C70.1769 24.64 70.6965 24.2602 71.0733 23.768C71.4501 23.2757 71.6385 22.6984 71.6385 22.0359V22.0268C71.6385 21.2854 71.3984 20.6959 70.9183 20.2583C70.4443 19.8208 69.7029 19.4956 68.6941 19.2829L67.0258 18.9274C66.6855 18.8484 66.412 18.7603 66.2054 18.663C65.9988 18.5658 65.8499 18.4503 65.7587 18.3166C65.6737 18.1829 65.6311 18.028 65.6311 17.8517V17.8426C65.6311 17.6178 65.698 17.4233 65.8317 17.2592C65.9654 17.0951 66.1477 16.9705 66.3786 16.8854C66.6156 16.7943 66.8891 16.7487 67.1991 16.7487C67.6974 16.7487 68.0924 16.8551 68.3841 17.0678C68.6758 17.2744 68.8551 17.5175 68.922 17.797L68.9311 17.8426H71.4015V17.8061C71.365 17.2653 71.1827 16.773 70.8545 16.3294C70.5264 15.8857 70.0554 15.5332 69.4416 15.2719C68.8278 15.0045 68.0803 14.8708 67.1991 14.8708C66.3665 14.8708 65.6372 15.0015 65.0112 15.2628C64.3853 15.5241 63.8991 15.8888 63.5527 16.3567C63.2063 16.8247 63.0331 17.3747 63.0331 18.0067V18.0158C63.0331 18.5141 63.1364 18.9517 63.343 19.3285C63.5557 19.7053 63.8748 20.0213 64.3002 20.2766C64.7256 20.5318 65.2574 20.7293 65.8955 20.8691L67.5637 21.2246C68.0742 21.334 68.4358 21.4768 68.6485 21.6531C68.8673 21.8293 68.9767 22.0511 68.9767 22.3185V22.3368C68.9767 22.5555 68.9037 22.747 68.7579 22.9111C68.6181 23.0751 68.4206 23.2028 68.1653 23.2939C67.9101 23.3851 67.6123 23.4307 67.272 23.4307C66.7493 23.4307 66.333 23.3304 66.0231 23.1298C65.7192 22.9293 65.5126 22.671 65.4032 22.355L65.3941 22.3094H62.7778V22.355C62.8447 22.9323 63.0574 23.4428 63.4159 23.8865C63.7806 24.3301 64.282 24.6795 64.9201 24.9348C65.5582 25.184 66.333 25.3085 67.2446 25.3085Z" fill="#393939"/>
<path d="M77.0716 25.3085C77.5456 25.3085 77.9741 25.2387 78.3569 25.0989C78.7459 24.9591 79.0771 24.7585 79.3506 24.4972C79.624 24.2298 79.8337 23.9138 79.9796 23.5492H80.1345V25.0989H82.7964V15.0805H80.1345V20.8691C80.1345 21.2094 80.092 21.5163 80.0069 21.7898C79.9218 22.0633 79.7912 22.2973 79.6149 22.4917C79.4448 22.6862 79.2351 22.8381 78.9859 22.9475C78.7368 23.0508 78.4481 23.1025 78.1199 23.1025C77.494 23.1025 77.0382 22.9202 76.7525 22.5555C76.473 22.1909 76.3332 21.6591 76.3332 20.9603V15.0805H73.6713V21.5619C73.6713 22.3519 73.799 23.0296 74.0542 23.5948C74.3095 24.1539 74.6893 24.5793 75.1937 24.871C75.6981 25.1627 76.3241 25.3085 77.0716 25.3085Z" fill="#393939"/>
<path d="M88.1565 25.2538C88.588 25.2538 88.9891 25.1961 89.3598 25.0806C89.7366 24.9591 90.0648 24.7859 90.3444 24.561C90.63 24.3362 90.8579 24.0688 91.028 23.7588H91.183V25.0989H93.8175V18.2619C93.8175 17.5509 93.6534 16.9432 93.3253 16.4388C93.0032 15.9283 92.5291 15.5393 91.9032 15.2719C91.2833 15.0045 90.5327 14.8708 89.6515 14.8708C88.8068 14.8708 88.0684 14.9924 87.4364 15.2355C86.8043 15.4785 86.2999 15.8219 85.9231 16.2656C85.5524 16.7031 85.3336 17.2167 85.2668 17.8061L85.2577 17.8973H87.719L87.7281 17.8517C87.8314 17.5539 88.0319 17.323 88.3297 17.1589C88.6336 16.9888 89.0256 16.9037 89.5057 16.9037C90.0526 16.9037 90.4689 17.0222 90.7546 17.2592C91.0402 17.4962 91.183 17.8335 91.183 18.2711V21.4525C91.183 21.805 91.0888 22.121 90.9004 22.4006C90.7181 22.6801 90.4659 22.9019 90.1438 23.066C89.8217 23.2301 89.454 23.3122 89.0408 23.3122C88.5789 23.3122 88.2021 23.2028 87.9104 22.984C87.6187 22.7652 87.4728 22.4674 87.4728 22.0906V22.0724C87.4728 21.7078 87.6126 21.4191 87.8922 21.2064C88.1717 20.9937 88.5941 20.8721 89.1593 20.8417L92.5048 20.623V19.0003L88.7673 19.2282C87.9347 19.2768 87.2267 19.4257 86.6433 19.6749C86.066 19.918 85.6254 20.2553 85.3215 20.6868C85.0237 21.1183 84.8748 21.6318 84.8748 22.2274V22.2456C84.8748 22.8533 85.0146 23.3851 85.2941 23.8409C85.5737 24.2906 85.9596 24.64 86.4519 24.8892C86.9502 25.1323 87.5184 25.2538 88.1565 25.2538Z" fill="#393939"/>
<path d="M96.452 25.0989H99.1139V11.2792H96.452V25.0989Z" fill="#393939"/>
<path d="M101.812 25.0989H104.474V15.0805H101.812V25.0989ZM103.152 13.5672C103.565 13.5672 103.918 13.4244 104.21 13.1388C104.501 12.8471 104.647 12.4976 104.647 12.0905C104.647 11.6833 104.501 11.3369 104.21 11.0513C103.918 10.7656 103.565 10.6228 103.152 10.6228C102.745 10.6228 102.393 10.7656 102.095 11.0513C101.803 11.3369 101.657 11.6833 101.657 12.0905C101.657 12.4976 101.803 12.8471 102.095 13.1388C102.393 13.4244 102.745 13.5672 103.152 13.5672Z" fill="#393939"/>
<path d="M106.872 25.0989H115.222V23.0934H110.299V22.9384L115.112 16.7852V15.0805H106.954V17.086H111.976V17.241L106.872 23.5765V25.0989Z" fill="#393939"/>
<path d="M121.776 25.3085C122.505 25.3085 123.137 25.2174 123.672 25.0351C124.213 24.8467 124.663 24.6036 125.021 24.3058C125.386 24.008 125.672 23.6859 125.878 23.3395C126.091 22.9931 126.234 22.6619 126.307 22.3459L126.334 22.2547H123.854L123.827 22.3094C123.766 22.437 123.651 22.5798 123.481 22.7379C123.317 22.8959 123.098 23.0326 122.824 23.1481C122.551 23.2635 122.22 23.3213 121.831 23.3213C121.357 23.3213 120.946 23.2149 120.6 23.0022C120.254 22.7895 119.986 22.4856 119.798 22.0906C119.609 21.6895 119.515 21.2064 119.515 20.6412V19.5746C119.515 18.9912 119.609 18.499 119.798 18.0979C119.986 17.6907 120.245 17.3838 120.573 17.1771C120.907 16.9644 121.287 16.8581 121.712 16.8581C122.144 16.8581 122.52 16.9614 122.843 17.168C123.171 17.3686 123.426 17.6694 123.608 18.0705C123.791 18.4716 123.882 18.973 123.882 19.5746V20.6321L125.131 19.055H118.212V20.7232H126.416V19.9028C126.416 18.8879 126.222 18.0037 125.833 17.2501C125.45 16.4965 124.903 15.9131 124.192 15.4998C123.487 15.0805 122.645 14.8708 121.667 14.8708C120.694 14.8708 119.85 15.0866 119.132 15.5181C118.415 15.9435 117.859 16.5482 117.464 17.3321C117.075 18.11 116.881 19.0338 116.881 20.1034V20.1125C116.881 21.1821 117.078 22.1058 117.473 22.8837C117.868 23.6616 118.43 24.2602 119.16 24.6795C119.889 25.0989 120.761 25.3085 121.776 25.3085Z" fill="#393939"/>
<path d="M128.522 25.0989H131.184V19.4926C131.184 19.0186 131.281 18.6144 131.475 18.2802C131.676 17.9398 131.958 17.6785 132.323 17.4962C132.688 17.3078 133.119 17.2136 133.618 17.2136C133.83 17.2136 134.037 17.2288 134.237 17.2592C134.438 17.2835 134.632 17.32 134.821 17.3686V15.044C134.693 15.0076 134.544 14.9772 134.374 14.9529C134.204 14.9286 134.028 14.9164 133.845 14.9164C133.201 14.9164 132.66 15.0683 132.223 15.3722C131.791 15.6761 131.497 16.1045 131.339 16.6575H131.184V15.0805H128.522V25.0989Z" fill="#393939"/>
</svg>
